<svg id="Calque_1" data-name="Calque 1" xmlns="http://www.w3.org/2000/svg" xmlns:xlink="http://www.w3.org/1999/xlink" viewBox="0 0 412.82 166.2"><defs><style>.cls-1,.cls-4{fill:none;}.cls-2{clip-path:url(#clip-path);}.cls-3{fill:url(#radial-gradient);}.cls-4{stroke:#ed1c24;stroke-width:5.71px;}.cls-4,.cls-6{stroke-linecap:round;stroke-linejoin:round;}.cls-5{fill:#fff;}.cls-6{fill:#135e42;stroke:#135e42;stroke-width:3.81px;}.cls-7{fill:#00953a;}.cls-8{fill:#231f20;}</style><clipPath id="clip-path" transform="translate(-78.72 -316.48)"><path class="cls-1" d="M128.31,470.42c0,3.33.11,6.62.31,9.9H415c.19-3.28.32-6.57.32-9.9,0-83.4-64.26-151-143.51-151s-143.5,67.62-143.5,151"/></clipPath><radialGradient id="radial-gradient" cx="-122.09" cy="718.13" r="1" gradientTransform="matrix(143.51, 0, 0, -151.04, 17714.59, 108619.51)" gradientUnits="userSpaceOnUse"><stop offset="0" stop-color="#fff200"/><stop offset="1" stop-color="#f7941d"/></radialGradient></defs><title>LOGO CASBAH</title><g class="cls-2"><rect class="cls-3" x="49.59" y="2.91" width="287.01" height="160.92"/></g><path class="cls-4" d="M121,479.82c-12.24-.07-21.74-3.2-28.76-13.32-6.89-10.33-10.55-28.35-10.67-51.72.12-22.8,3.81-39.69,10.55-47.44,6.84-7.52,16-6.6,27.58-2.74a110.4,110.4,0,0,1,15.21,6.73c.44,4.29.86,10,1.3,17-6-6.19-10.94-9.68-16.31-11.24-11.3-3-17.92,6.34-18.13,35.8.23,35.58,7.79,52.2,22.52,52.68,6.91,0,13.39-2.86,21-9.12-1.49,7.63-2.91,14.29-4.39,19.89A61.72,61.72,0,0,1,121,479.82Z" transform="translate(-78.72 -316.48)"/><path class="cls-4" d="M167.45,433.06c2.37-12,4.64-23.35,7-32.92C176.81,410.41,179,422,181.37,434,176.66,433.69,172.17,433.4,167.45,433.06Zm-24.11,45h19.92a12.15,12.15,0,0,1-3.2-8.4,30.57,30.57,0,0,1,.9-5.87c1.09-4.69,2.12-9.51,3.2-14.73,6.91.28,13.51.51,20.41.72,1.15,5.32,2.25,10.2,3.41,14.92a20.44,20.44,0,0,1,.5,4.72c0,3.68-1.28,5.69-3.6,8.64H214.3c-3.24-3.52-5.77-8.73-7.51-15.76-6.51-27.3-12.72-64.24-19.22-78.5-8.13-1.52-15.89-3.18-24-5.13,2.13,2.34,3.27,4.2,3.29,6.65s-.88,4.15-1.5,6.37c-5.38,18.84-10.53,49.91-15.91,73A35.2,35.2,0,0,1,143.34,478.08Z" transform="translate(-78.72 -316.48)"/><path class="cls-4" d="M235.62,466.43c6.5,0,10.21-4.31,10.3-10.57-.17-9.56-6.84-12.32-16.51-20.28A39.25,39.25,0,0,1,215.1,406c.21-15,9.07-17.24,24.93-16.14a91.09,91.09,0,0,1,17,2.78v9.88c-5.79-3.32-10.25-5-14.12-5.24-5.48-.27-8.82,2.13-8.9,6.38.15,6.63,7,9.7,18.91,19.32,7.89,6.56,11.32,15.31,11.41,27.77-.26,19.25-10.27,28.34-26.72,28.52a53.56,53.56,0,0,1-20.12-4.07c-1.19-5.79-2.32-12.37-3.5-19.74C222,462.93,228.5,466.35,235.62,466.43Z" transform="translate(-78.72 -316.48)"/><path class="cls-4" d="M295.57,465.41V432.81a29.35,29.35,0,0,1,3.9-.67c6.2,0,10.11,6.61,10.21,17.68-.1,9.84-4,16-10.1,16.13A19.85,19.85,0,0,1,295.57,465.41Zm-23.12,12.69h29.22c8.84,0,14.58-.79,19.92-8,3.52-5,5.35-11.88,5.4-20.13-.12-14-4.7-23-13.92-26.76a22.87,22.87,0,0,0,10.21-18.87c-.18-12.22-8.35-13.61-25.62-12.86-8.53.41-16.69.58-25.22.54,3.83,2,3.9,4.49,3.9,9.62,0,15.46,0,40.58,0,61.3C276.35,469.73,276.27,474,272.45,478.11Zm23.12-59.75V399.88a27.08,27.08,0,0,1,2.9-.41c4.17-.11,6.75,2.8,6.81,8.15-.07,6.37-2.64,10.75-7,10.94A11,11,0,0,1,295.57,418.35Z" transform="translate(-78.72 -316.48)"/><path class="cls-4" d="M353,434.87c2.37-11.6,4.63-22.76,7-32.58,2.35,9.22,4.56,20.15,6.9,31.8C362.23,434.37,357.73,434.63,353,434.87ZM328.9,478.1h19.91a11.83,11.83,0,0,1-3.2-8.16,28.1,28.1,0,0,1,.91-5.63c1.07-4.48,2.11-9.07,3.19-14,6.92-.17,13.52-.37,20.42-.6,1.15,5.3,2.25,10.19,3.4,14.94a19.83,19.83,0,0,1,.5,4.78c0,3.72-1.26,5.75-3.6,8.71h29.43c-3.23-3.57-5.75-9-7.51-16.43-6.5-28.91-12.71-67.67-19.21-80-8.12,1.72-15.88,3.16-24,4.45,2.13,1.23,3.27,2.48,3.3,4.69s-.88,4-1.51,6.22c-5.37,18.62-10.51,46.82-15.9,68.31A34.42,34.42,0,0,1,328.9,478.1Z" transform="translate(-78.72 -316.48)"/><path class="cls-4" d="M445.41,376.73c0-8-.18-12.21-4-14.44,9.13-3.28,17.88-6.66,27-10.46-3.82,5.77-4,10.37-4,19v89.49c0,8.55.18,13.45,4,17.72h-27c3.83-4.24,4-9,4-17.22V425.22c-7.46.88-14.57,1.68-22,2.45,0,12.08,0,23.51,0,33.69,0,7.85.09,12.52,3.9,16.72H400.46c3.82-4.16,3.9-8.74,3.9-16.34V387.3c0-6.77,0-10.31-3.9-12.17,9.07-2.44,17.75-5,26.82-8-3.82,4.62-3.9,8.35-3.9,15.64s0,15.59,0,24.79c7.46-1.25,14.57-2.5,22-3.93Z" transform="translate(-78.72 -316.48)"/><path class="cls-5" d="M121,479.82c-12.24-.07-21.74-3.2-28.76-13.32-6.89-10.33-10.55-28.35-10.67-51.72.12-22.8,3.81-39.69,10.55-47.44,6.84-7.52,16-6.6,27.58-2.74a110.4,110.4,0,0,1,15.21,6.73c.44,4.29.86,10,1.3,17-6-6.19-10.94-9.68-16.31-11.24-11.3-3-17.92,6.34-18.13,35.8.23,35.58,7.79,52.2,22.52,52.68,6.91,0,13.39-2.86,21-9.12-1.49,7.63-2.91,14.29-4.39,19.89A61.72,61.72,0,0,1,121,479.82" transform="translate(-78.72 -316.48)"/><path class="cls-5" d="M167.45,433.06c2.37-12,4.64-23.35,7-32.92C176.81,410.41,179,422,181.37,434c-4.71-.28-9.2-.58-13.92-.92m-24.11,45h19.92a12.15,12.15,0,0,1-3.2-8.4,30.57,30.57,0,0,1,.9-5.87c1.09-4.69,2.12-9.51,3.2-14.73,6.91.28,13.51.51,20.41.72,1.15,5.32,2.25,10.2,3.41,14.92a20.44,20.44,0,0,1,.5,4.72c0,3.68-1.28,5.69-3.6,8.64H214.3c-3.24-3.52-5.77-8.73-7.51-15.76-6.51-27.3-12.72-64.24-19.22-78.5-8.13-1.52-15.89-3.18-24-5.13,2.13,2.34,3.27,4.2,3.29,6.65s-.88,4.15-1.5,6.37c-5.38,18.84-10.53,49.91-15.91,73a35.2,35.2,0,0,1-6.11,13.38" transform="translate(-78.72 -316.48)"/><path class="cls-5" d="M235.62,466.43c6.5,0,10.21-4.31,10.3-10.57-.17-9.56-6.84-12.32-16.51-20.28A39.25,39.25,0,0,1,215.1,406c.21-15,9.07-17.24,24.93-16.14a91.09,91.09,0,0,1,17,2.78v9.88c-5.79-3.32-10.25-5-14.12-5.24-5.48-.27-8.82,2.13-8.9,6.38.15,6.63,7,9.7,18.91,19.32,7.89,6.56,11.32,15.31,11.41,27.77-.26,19.25-10.27,28.34-26.72,28.52a53.56,53.56,0,0,1-20.12-4.07c-1.19-5.79-2.32-12.37-3.5-19.74,8,7.45,14.5,10.87,21.62,11" transform="translate(-78.72 -316.48)"/><path class="cls-5" d="M295.57,465.41V432.81a29.35,29.35,0,0,1,3.9-.67c6.2,0,10.11,6.61,10.21,17.68-.1,9.84-4,16-10.1,16.13a19.85,19.85,0,0,1-4-.53m-23.12,12.69h29.22c8.84,0,14.58-.79,19.92-8,3.52-5,5.35-11.88,5.4-20.13-.12-14-4.7-23-13.92-26.76a22.87,22.87,0,0,0,10.21-18.87c-.18-12.22-8.35-13.61-25.62-12.86-8.53.41-16.69.58-25.22.54,3.83,2,3.9,4.49,3.9,9.62,0,15.46,0,40.58,0,61.3,0,6.77-.09,11.06-3.9,15.14m23.12-59.75V399.88a27.08,27.08,0,0,1,2.9-.41c4.17-.11,6.75,2.8,6.81,8.15-.07,6.37-2.64,10.75-7,10.94a11,11,0,0,1-2.7-.21" transform="translate(-78.72 -316.48)"/><path class="cls-5" d="M353,434.87c2.37-11.6,4.63-22.76,7-32.58,2.35,9.22,4.56,20.15,6.9,31.8-4.7.28-9.2.54-13.9.78M328.9,478.1h19.91a11.83,11.83,0,0,1-3.2-8.16,28.1,28.1,0,0,1,.91-5.63c1.07-4.48,2.11-9.07,3.19-14,6.92-.17,13.52-.37,20.42-.6,1.15,5.3,2.25,10.19,3.4,14.94a19.83,19.83,0,0,1,.5,4.78c0,3.72-1.26,5.75-3.6,8.71h29.43c-3.23-3.57-5.75-9-7.51-16.43-6.5-28.91-12.71-67.67-19.21-80-8.12,1.72-15.88,3.16-24,4.45,2.13,1.23,3.27,2.48,3.3,4.69s-.88,4-1.51,6.22c-5.37,18.62-10.51,46.82-15.9,68.31a34.42,34.42,0,0,1-6.11,12.72" transform="translate(-78.72 -316.48)"/><path class="cls-5" d="M445.41,376.73c0-8-.18-12.21-4-14.44,9.13-3.28,17.88-6.66,27-10.46-3.82,5.77-4,10.37-4,19v89.49c0,8.55.18,13.45,4,17.72h-27c3.83-4.24,4-9,4-17.22V425.22c-7.46.88-14.57,1.68-22,2.45,0,12.08,0,23.51,0,33.69,0,7.85.09,12.52,3.9,16.72H400.46c3.82-4.16,3.9-8.74,3.9-16.34V387.3c0-6.77,0-10.31-3.9-12.17,9.07-2.44,17.75-5,26.82-8-3.82,4.62-3.9,8.35-3.9,15.64s0,15.59,0,24.79c7.46-1.25,14.57-2.5,22-3.93Z" transform="translate(-78.72 -316.48)"/><path class="cls-6" d="M363.64,344.06q2.15,16.48.13,25-6.86,28.9-17.5,39.11-13.35,12.79-39.34,6l-.21-.69.49-.52q18.16,0,32.36-8.82,15.93-10,20.05-27.34,2.83-12-4-43c-.52,2.25-1.18,5.88-1.91,10.91s-1.41,8.74-2,11.13a41.59,41.59,0,0,1-2.62,7.87l-1.1.47-.48-1.15c.32-1.36.65-2.76,1-4.2q1.12-4.68,2.42-14.08t2.38-14a32,32,0,0,1,4.79-11.49A116.79,116.79,0,0,1,363.64,344.06Z" transform="translate(-78.72 -316.48)"/><path class="cls-6" d="M339.77,340a73.08,73.08,0,0,1-1.14,23.71q-4.52,19-18,25.91l2.61-11q10.79-6.21,13.19-16.28Q338.85,352,331.13,332c-.55,2.31-1.15,6-1.79,10.91s-1.27,8.63-1.83,11l-.45.38-.53-.38c-.48-1.33,0-6.56,1.43-15.73q1.8-11.56,3-16.73a6.53,6.53,0,0,1,1.34-3.11Q338.27,324.43,339.77,340Z" transform="translate(-78.72 -316.48)"/><path class="cls-6" d="M311.37,390.37a19.72,19.72,0,0,1-8.55-4.31,41.91,41.91,0,0,1-5.84-8.13c-2.85,1.72-4.94,3-6.28,4l2.64-11.15a8.2,8.2,0,0,1,.06-4.18c1.78-7.58,5.5-12.72,11.09-15.4l1.4.16c1.85.32,3,1.9,3.33,4.73a19.72,19.72,0,0,1-.47,6.57q-1.3,5.41-6.91,11.52,2.13,3.78,8.33,5.4,8.36,2.18,13.83-1.91l-2.72,11.48A13.24,13.24,0,0,1,311.37,390.37Zm-6.47-29.58a4.26,4.26,0,0,0-2.24-1.55q-1-.28-3.4,1.54c-1.58,1.21-2.45,2.21-2.65,3-.15.65.54,2.15,2.09,4.52,4.23-1.8,6.52-3.5,6.91-5.11A2.77,2.77,0,0,0,304.9,360.78Zm8.82-31.93c-.22,1-.4,1.68-.51,2.16q-.87,3.71-5.59,5.75c-2.66,1-5.3,2-7.94,2.87a6.48,6.48,0,0,1-1.41.38,3.18,3.18,0,0,1,.09-1.37,61.87,61.87,0,0,1,3.18-7.78,34,34,0,0,1,4.42-1.13q5.6-1.95,8.3-3.14A10.8,10.8,0,0,0,313.71,328.85Z" transform="translate(-78.72 -316.48)"/><path class="cls-6" d="M278.49,382q-8.78-2.3-12.71-15.42a33.14,33.14,0,0,1-7.31,1.25l-.55,6.88-.26.58-.57-.16c0-3.21,0-5.63,0-7.25a41.14,41.14,0,0,1-12.3-1.33,24,24,0,0,1-4.18-1.34,29.5,29.5,0,0,1-3.48,2.39l2.57-10.81A48.49,48.49,0,0,0,245,351l.56-.37c.6.17.45,2.08-.42,5.79a36.92,36.92,0,0,1-2.29,5.16q5.81,1.51,15.11-1c2.19-9.2,3.81-14.67,4.88-16.45q3.49-5.56,14.08-7.37,7.07-1.21,10.13-.4l.89.36q1.36,1.87.61,5.1-3.94,16.58-19,23.14c2.71,3.5,5.53,5.65,8.41,6.4q10.6,2.8,16.63-1.16L292,381.31Q286.47,384.07,278.49,382Zm4.33-36.25c-1.66-.43-4.76-.29-9.31.46s-7.38,1.59-8.49,2.57a12,12,0,0,0-4.27,6.33l-1.07,5a55,55,0,0,0,19.56-8.88c3.1-2.29,4.73-3.73,4.86-4.29S283.81,346,282.82,345.72Z" transform="translate(-78.72 -316.48)"/><path class="cls-6" d="M222.14,387.69c-2.22-2.2-3.88-3.89-5-5,2-3.49,3.67-6.07,4.86-7.72,3.42,2.61,5.15,4.49,5.21,5.61Q223.86,386.61,222.14,387.69Zm6.16-19.14q-4.32-1.15-6.56-6.44l-1.56,1,2.57-10.8q4.09-3.23,5.28-5.82l.57-.35q.78.72-.52,6.19a18.16,18.16,0,0,1-3.32,6,5.27,5.27,0,0,0,2.68,1.46,12.11,12.11,0,0,0,6.76-.42,16.71,16.71,0,0,0,6.25-3.4l-2.66,11.24C234.19,368.81,231,369.26,228.3,368.55Z" transform="translate(-78.72 -316.48)"/><path class="cls-6" d="M209.91,364.2a10.89,10.89,0,0,1-2.46-1.13,10,10,0,0,0-2.46-1.12q-4.33-1.16-8.83,3-.71.45-6.66,7.65c-.66.76-1.11,1.11-1.34,1a21.76,21.76,0,0,1,.32-8.48q.91-3.84,7.32-9.65t9.82-4.9a10.68,10.68,0,0,1,3.4,2,10.92,10.92,0,0,0,3.52,2q4.44,1.17,10.82-3.17l-2.66,11.13A14.41,14.41,0,0,1,209.91,364.2Zm6.46-38c-.18,1-.32,1.82-.43,2.3a6.94,6.94,0,0,1-1.44,3.06q-1.85,2.17-7.18,3.7-3.67,1.2-6.32,2.13a.69.69,0,0,1,.14-.59,2.49,2.49,0,0,1,0-.63,50.73,50.73,0,0,1,3.24-8,17,17,0,0,1,4.13-1.06,75.87,75.87,0,0,0,8.26-3.16C216.68,324.34,216.53,325.11,216.37,326.16Z" transform="translate(-78.72 -316.48)"/><path class="cls-7" d="M363.64,344.06q2.15,16.48.13,25-6.86,28.9-17.5,39.11-13.35,12.79-39.34,6l-.21-.69.49-.52q18.16,0,32.36-8.82,15.93-10,20.05-27.34,2.83-12-4-43c-.52,2.25-1.18,5.88-1.91,10.91s-1.41,8.74-2,11.13a41.59,41.59,0,0,1-2.62,7.87l-1.1.47-.48-1.15c.32-1.36.65-2.76,1-4.2q1.12-4.68,2.42-14.08t2.38-14a32,32,0,0,1,4.79-11.49,116.79,116.79,0,0,1,5.51,24.76" transform="translate(-78.72 -316.48)"/><path class="cls-7" d="M339.77,340a73.08,73.08,0,0,1-1.14,23.71q-4.52,19-18,25.91l2.61-11q10.79-6.21,13.19-16.28Q338.85,352,331.13,332c-.55,2.31-1.15,6-1.79,10.91s-1.27,8.63-1.83,11l-.45.38-.53-.38c-.48-1.33,0-6.56,1.43-15.73q1.8-11.56,3-16.73a6.53,6.53,0,0,1,1.34-3.11q6,6,7.47,21.62" transform="translate(-78.72 -316.48)"/><path class="cls-7" d="M311.37,390.37a19.72,19.72,0,0,1-8.55-4.31,41.91,41.91,0,0,1-5.84-8.13c-2.85,1.72-4.94,3-6.28,4l2.64-11.15a8.2,8.2,0,0,1,.06-4.18c1.78-7.58,5.5-12.72,11.09-15.4l1.4.16c1.85.32,3,1.9,3.33,4.73a19.72,19.72,0,0,1-.47,6.57q-1.3,5.41-6.91,11.52,2.13,3.78,8.33,5.4,8.36,2.18,13.83-1.91l-2.72,11.48a13.24,13.24,0,0,1-9.89,1.26m-6.47-29.58a4.26,4.26,0,0,0-2.24-1.55q-1-.28-3.4,1.54c-1.58,1.21-2.45,2.21-2.65,3-.15.65.54,2.15,2.09,4.52,4.23-1.8,6.52-3.5,6.91-5.11a2.77,2.77,0,0,0-.71-2.42m8.82-31.93c-.22,1-.4,1.68-.51,2.16q-.87,3.71-5.59,5.75c-2.66,1-5.3,2-7.94,2.87a6.48,6.48,0,0,1-1.41.38,3.18,3.18,0,0,1,.09-1.37,61.87,61.87,0,0,1,3.18-7.78,34,34,0,0,1,4.42-1.13q5.6-1.95,8.3-3.14a10.8,10.8,0,0,0-.54,2.26" transform="translate(-78.72 -316.48)"/><path class="cls-7" d="M278.49,382q-8.78-2.3-12.71-15.42a33.14,33.14,0,0,1-7.31,1.25l-.55,6.88-.26.58-.57-.16c0-3.21,0-5.63,0-7.25a41.14,41.14,0,0,1-12.3-1.33,24,24,0,0,1-4.18-1.34,29.5,29.5,0,0,1-3.48,2.39l2.57-10.81A48.49,48.49,0,0,0,245,351l.56-.37c.6.17.45,2.08-.42,5.79a36.92,36.92,0,0,1-2.29,5.16q5.81,1.51,15.11-1c2.19-9.2,3.81-14.67,4.88-16.45q3.49-5.56,14.08-7.37,7.07-1.21,10.13-.4l.89.36q1.36,1.87.61,5.1-3.94,16.58-19,23.14c2.71,3.5,5.53,5.65,8.41,6.4q10.6,2.8,16.63-1.16L292,381.31q-5.49,2.76-13.47.66m4.33-36.25c-1.66-.43-4.76-.29-9.31.46s-7.38,1.59-8.49,2.57a12,12,0,0,0-4.27,6.33l-1.07,5a55,55,0,0,0,19.56-8.88c3.1-2.29,4.73-3.73,4.86-4.29s-.3-1-1.28-1.21" transform="translate(-78.72 -316.48)"/><path class="cls-7" d="M222.14,387.69c-2.22-2.2-3.88-3.89-5-5,2-3.49,3.67-6.07,4.86-7.72,3.42,2.61,5.15,4.49,5.21,5.61q-3.36,6.07-5.09,7.15m6.16-19.14q-4.32-1.15-6.56-6.44l-1.56,1,2.57-10.8q4.09-3.23,5.28-5.82l.57-.35q.78.72-.52,6.19a18.16,18.16,0,0,1-3.32,6,5.27,5.27,0,0,0,2.68,1.46,12.11,12.11,0,0,0,6.76-.42,16.71,16.71,0,0,0,6.25-3.4l-2.66,11.24c-3.59,1.63-6.76,2.08-9.49,1.37" transform="translate(-78.72 -316.48)"/><path class="cls-7" d="M209.91,364.2a10.89,10.89,0,0,1-2.46-1.13,10,10,0,0,0-2.46-1.12q-4.33-1.16-8.83,3-.71.45-6.66,7.65c-.66.76-1.11,1.11-1.34,1a21.76,21.76,0,0,1,.32-8.48q.91-3.84,7.32-9.65t9.82-4.9a10.68,10.68,0,0,1,3.4,2,10.92,10.92,0,0,0,3.52,2q4.44,1.17,10.82-3.17l-2.66,11.13a14.41,14.41,0,0,1-10.8,1.62m6.46-38c-.18,1-.32,1.82-.43,2.3a6.94,6.94,0,0,1-1.44,3.06q-1.85,2.17-7.18,3.7-3.67,1.2-6.32,2.13a.69.69,0,0,1,.14-.59,2.49,2.49,0,0,1,0-.63,50.73,50.73,0,0,1,3.24-8,17,17,0,0,1,4.13-1.06,75.87,75.87,0,0,0,8.26-3.16c-.11.48-.26,1.25-.42,2.3" transform="translate(-78.72 -316.48)"/><path class="cls-8" d="M491.55,369a10.29,10.29,0,1,1-10.12-10,10.14,10.14,0,0,1,10.12,10m-16.95-5.48a8.43,8.43,0,0,0-2,5.43,8.65,8.65,0,1,0,2-5.43M480.24,374a1.48,1.48,0,0,0,.15.66h-3.77a1,1,0,0,0,.18-.66V364a1.4,1.4,0,0,0-.15-.67h5.22c2.44,0,4,1.27,4,3.21,0,1.47-.83,2.37-2.61,2.88l3,4.51a3.83,3.83,0,0,0,.62.69h-4.06a1,1,0,0,0-.18-.57l-2.4-4.21Zm.47-5.37a1.72,1.72,0,0,0,1.81-1.93c0-1.27-.65-2-1.81-2h-.5v3.93Z" transform="translate(-78.72 -316.48)"/></svg>